<svg width="82" height="82" viewBox="0 0 82 82" fill="none" xmlns="http://www.w3.org/2000/svg">
<g filter="url(#filter0_d_1_133)">
<rect x="4" width="74" height="74" rx="37" fill="url(#paint0_linear_1_133)"/>
<g clip-path="url(#clip0_1_133)">
<path d="M54.8254 18.002C51.6235 18.002 49.0937 20.6966 49.0937 24.0546C49.0937 27.4126 51.6631 30.0658 54.8254 30.0658C57.9878 30.0658 60.5967 27.3711 60.5967 24.0132C60.5967 20.6552 58.0273 18.002 54.8254 18.002ZM54.8254 28.7392C52.3351 28.7392 50.3191 26.6249 50.3191 24.0132C50.3191 21.4014 52.3746 19.3286 54.8254 19.3286C57.3158 19.3286 59.3318 21.4428 59.3318 24.0546C59.3318 26.6664 57.3158 28.7392 54.8254 28.7392Z" fill="white"/>
<path d="M56.6438 24.9666C56.6043 24.8423 56.6043 24.7593 56.5252 24.635C56.4857 24.5521 56.4462 24.4277 56.3671 24.3448C56.288 24.2619 56.2485 24.179 56.1695 24.096C56.0904 24.0131 56.0113 23.9302 55.8927 23.8888C55.8137 23.8058 55.6951 23.7644 55.616 23.7229C55.4975 23.6815 55.4184 23.5986 55.2998 23.5571C55.1812 23.5157 55.0626 23.4742 54.9836 23.4327C54.944 23.4327 54.865 23.3913 54.8255 23.3498C54.7859 23.3084 54.7069 23.3084 54.6673 23.2669C54.6278 23.2255 54.5487 23.2255 54.5092 23.184C54.4697 23.1425 54.4302 23.1011 54.3906 23.0596C54.3511 23.0182 54.3116 22.9767 54.3116 22.8938C54.272 22.8523 54.272 22.7694 54.272 22.728C54.272 22.6451 54.272 22.6036 54.272 22.5207C54.272 22.4792 54.3116 22.3963 54.3116 22.3549C54.3511 22.3134 54.3511 22.2305 54.3906 22.189C54.4302 22.1476 54.4697 22.1061 54.5092 22.0647C54.5487 22.0232 54.6278 21.9818 54.7069 21.9818C54.7859 21.9403 54.8255 21.9403 54.9045 21.9403C54.944 21.9403 54.9836 21.9403 55.0231 21.9403C55.0626 21.9403 55.1022 21.9403 55.1417 21.9403C55.2207 21.9403 55.2603 21.9403 55.3393 21.9818C55.4184 21.9818 55.4975 22.0232 55.537 22.0232C55.5765 22.0232 55.6556 22.0647 55.6951 22.0647C55.7742 22.0647 55.8137 22.1061 55.8532 22.1061L56.0509 22.189L56.0904 21.9403L56.1695 21.277V21.1112L56.0113 21.0697C55.9718 21.0697 55.8927 21.0283 55.8532 21.0283C55.8137 21.0283 55.7742 20.9868 55.6951 20.9868C55.6556 20.9868 55.5765 20.9453 55.4975 20.9453C55.4184 20.9453 55.3789 20.9039 55.2998 20.9039H55.2603V20.3235V20.1162H55.0626H54.5092H54.3116V20.3235V20.9453H54.272C54.1535 20.9868 54.0349 21.0283 53.9163 21.1112C53.7977 21.1526 53.7186 21.2355 53.6396 21.3185C53.5605 21.4014 53.4815 21.4843 53.4024 21.6086C53.3233 21.6916 53.2838 21.8159 53.2443 21.9403C53.2047 22.0647 53.1652 22.189 53.1257 22.3134C53.0862 22.4378 53.0862 22.6036 53.0862 22.728C53.0862 22.8523 53.0862 22.9353 53.1257 23.0596C53.1652 23.184 53.1652 23.2669 53.2443 23.3913C53.2838 23.4742 53.3629 23.5986 53.4024 23.6815C53.4815 23.7644 53.521 23.8473 53.6 23.9302C53.6791 24.0131 53.7582 24.096 53.8767 24.1375C53.9558 24.2204 54.0744 24.2619 54.1535 24.3033C54.272 24.3448 54.3906 24.4277 54.4697 24.4692C54.5883 24.5106 54.7069 24.5521 54.7859 24.5935C54.8255 24.5935 54.9045 24.635 54.944 24.6764C54.9836 24.7179 55.0626 24.7179 55.1022 24.7593C55.1417 24.8008 55.1812 24.8423 55.2207 24.8423C55.2603 24.8837 55.2998 24.9252 55.3393 24.9666C55.3789 25.0081 55.3789 25.0495 55.4184 25.1325C55.4184 25.1739 55.4579 25.2568 55.4579 25.3397C55.4579 25.4227 55.4579 25.4641 55.4579 25.547C55.4579 25.5885 55.4184 25.6714 55.3789 25.7129C55.3393 25.7543 55.2998 25.7958 55.2603 25.8372C55.2207 25.8787 55.1812 25.9201 55.1022 25.9616C55.0626 26.003 54.9836 26.003 54.944 26.0445C54.9045 26.0445 54.8255 26.086 54.7464 26.086C54.7069 26.086 54.6673 26.086 54.5883 26.086C54.5487 26.086 54.4697 26.086 54.4302 26.086C54.3511 26.086 54.272 26.086 54.2325 26.086C54.1535 26.086 54.0744 26.0445 54.0349 26.0445C53.9558 26.0445 53.8767 26.003 53.7977 25.9616C53.7186 25.9201 53.6396 25.9201 53.5605 25.8787C53.521 25.8787 53.4815 25.8372 53.4419 25.8372C53.4024 25.8372 53.3629 25.7958 53.3233 25.7958L53.0862 25.6714L53.0466 25.9616L52.9676 26.7078V26.8322L53.0862 26.8736C53.2443 26.8322 53.3233 26.8736 53.4419 26.9151C53.521 26.9565 53.6396 26.998 53.7186 26.998C53.7977 27.0395 53.9163 27.0395 54.0349 27.0809C54.1535 27.1224 54.2325 27.1224 54.3511 27.1224H54.4302V27.7442V27.9515H54.6278H55.1812H55.3789V27.7442V27.0809H55.4184C55.537 27.0395 55.6556 26.998 55.7742 26.9151C55.8927 26.8736 55.9718 26.7907 56.0904 26.7078C56.1695 26.6249 56.2485 26.542 56.3276 26.4176C56.4066 26.3347 56.4462 26.2103 56.5252 26.086C56.5647 25.9616 56.6043 25.8372 56.6438 25.7129C56.6833 25.5885 56.6833 25.4641 56.6833 25.2983C56.6833 25.1739 56.6833 25.091 56.6438 24.9666Z" fill="white"/>
<path d="M52.0583 30.8535C51.8607 30.5633 51.4259 30.5219 51.1492 30.7292L44.7454 36.0771L36.4837 32.4703C36.2861 32.3874 36.0489 32.4289 35.8908 32.5533L27.0362 39.1863C26.7595 39.3936 26.6804 39.8082 26.8781 40.0984C26.9967 40.3056 27.1943 40.3885 27.392 40.3885C27.5106 40.3885 27.6292 40.3471 27.7477 40.2642L36.3256 33.8384L44.6268 37.4451C44.8244 37.528 45.1012 37.4866 45.2593 37.3622L51.9397 31.807C52.2165 31.5997 52.256 31.1437 52.0583 30.8535Z" fill="white"/>
<path d="M61.3082 53.5717H58.3831V34.3773C58.3831 34.0042 58.1064 33.714 57.7506 33.714H51.9398C51.584 33.714 51.3073 34.0042 51.3073 34.3773V53.5717H49.1727V41.0103C49.1727 40.6372 48.896 40.347 48.5402 40.347H42.6899C42.3341 40.347 42.0574 40.6372 42.0574 41.0103V53.5717H39.9228V40.0154C39.9228 39.6423 39.6461 39.3521 39.2904 39.3521H33.4795C33.1238 39.3521 32.8471 39.6423 32.8471 40.0154V53.5717H30.7125V43.9123C30.7125 43.5392 30.4358 43.249 30.08 43.249H24.2296C23.8739 43.249 23.5972 43.5392 23.5972 43.9123V53.5717H20.6325C20.2767 53.5717 20 53.8619 20 54.235C20 54.6081 20.2767 54.8983 20.6325 54.8983H24.1901H30.0009H33.4795H39.2904H42.6899H48.5007H51.9002H57.7111H61.2687C61.6245 54.8983 61.9012 54.6081 61.9012 54.235C61.9407 53.8619 61.664 53.5717 61.3082 53.5717ZM29.408 53.5717H24.8621V44.5756H29.408V53.5717ZM38.6579 53.5717H34.112V40.6787H38.6579V53.5717ZM47.8682 53.5717H43.3224V41.6737H47.8682V53.5717ZM57.1181 53.5717H52.5722V35.0406H57.1181V53.5717Z" fill="white"/>
</g>
</g>
<defs>
<filter id="filter0_d_1_133" x="0" y="0" width="82" height="82" filterUnits="userSpaceOnUse" color-interpolation-filters="sRGB">
<feFlood flood-opacity="0" result="BackgroundImageFix"/>
<feColorMatrix in="SourceAlpha" type="matrix" values="0 0 0 0 0 0 0 0 0 0 0 0 0 0 0 0 0 0 127 0" result="hardAlpha"/>
<feOffset dy="4"/>
<feGaussianBlur stdDeviation="2"/>
<feComposite in2="hardAlpha" operator="out"/>
<feColorMatrix type="matrix" values="0 0 0 0 0 0 0 0 0 0 0 0 0 0 0 0 0 0 0.25 0"/>
<feBlend mode="normal" in2="BackgroundImageFix" result="effect1_dropShadow_1_133"/>
<feBlend mode="normal" in="SourceGraphic" in2="effect1_dropShadow_1_133" result="shape"/>
</filter>
<linearGradient id="paint0_linear_1_133" x1="41" y1="0" x2="41" y2="74" gradientUnits="userSpaceOnUse">
<stop stop-color="#D97F95"/>
<stop offset="1" stop-color="#923250"/>
</linearGradient>
<clipPath id="clip0_1_133">
<rect width="42" height="37" fill="white" transform="translate(20 18)"/>
</clipPath>
</defs>
</svg>
