<svg width="82" height="82" viewBox="0 0 82 82" fill="none" xmlns="http://www.w3.org/2000/svg">
<g filter="url(#filter0_d_1_94)">
<rect x="4" width="74" height="74" rx="37" fill="url(#paint0_linear_1_94)"/>
<path d="M40.9998 48.3775C38.5518 48.3775 36.1587 47.6515 34.1233 46.2915C32.0878 44.9314 30.5013 42.9983 29.5645 40.7366C28.6277 38.4749 28.3826 35.9862 28.8602 33.5852C29.3377 31.1842 30.5166 28.9788 32.2476 27.2477C33.9786 25.5167 36.1841 24.3379 38.5851 23.8603C40.9861 23.3827 43.4748 23.6278 45.7365 24.5646C47.9982 25.5014 49.9313 27.0879 51.2914 29.1234C52.6514 31.1588 53.3773 33.5519 53.3773 36C53.3736 39.2815 52.0683 42.4276 49.7479 44.748C47.4275 47.0685 44.2814 48.3737 40.9998 48.3775ZM40.9998 24.7576C38.7763 24.7576 36.6027 25.4169 34.7539 26.6523C32.9051 27.8876 31.4641 29.6434 30.6132 31.6977C29.7623 33.752 29.5397 36.0124 29.9735 38.1932C30.4073 40.374 31.478 42.3772 33.0503 43.9495C34.6225 45.5218 36.6257 46.5925 38.8066 47.0263C40.9874 47.4601 43.2478 47.2375 45.3021 46.3866C47.3564 45.5357 49.1122 44.0947 50.3475 42.2459C51.5829 40.3971 52.2422 38.2235 52.2422 36C52.2388 33.0194 51.0532 30.1618 48.9456 28.0542C46.838 25.9466 43.9804 24.761 40.9998 24.7576Z" fill="white"/>
<path d="M41 45.4443C39.1321 45.4443 37.3061 44.8904 35.753 43.8527C34.1999 42.8149 32.9894 41.3399 32.2745 39.6142C31.5597 37.8885 31.3727 35.9895 31.7371 34.1575C32.1015 32.3255 33.001 30.6427 34.3218 29.3218C35.6426 28.001 37.3255 27.1016 39.1575 26.7371C40.9895 26.3727 42.8884 26.5598 44.6142 27.2746C46.3399 27.9894 47.8149 29.1999 48.8526 30.753C49.8904 32.3061 50.4443 34.1321 50.4443 36C50.4414 38.5039 49.4455 40.9045 47.675 42.675C45.9044 44.4455 43.5039 45.4415 41 45.4443ZM41 27.6908C39.3566 27.6908 37.7501 28.1781 36.3836 29.0912C35.0172 30.0042 33.9522 31.3019 33.3233 32.8202C32.6944 34.3385 32.5298 36.0092 32.8504 37.621C33.171 39.2329 33.9624 40.7134 35.1245 41.8755C36.2865 43.0375 37.7671 43.8289 39.3789 44.1495C40.9908 44.4701 42.6615 44.3056 44.1798 43.6767C45.6981 43.0478 46.9958 41.9828 47.9088 40.6163C48.8218 39.2499 49.3092 37.6434 49.3092 36C49.3066 33.797 48.4304 31.6851 46.8726 30.1273C45.3149 28.5696 43.2029 27.6934 41 27.6908Z" fill="white"/>
<path d="M41.9454 36.1817H39.0588C38.9083 36.1817 38.7639 36.1219 38.6575 36.0154C38.551 35.909 38.4912 35.7646 38.4912 35.6141V30.9742C38.4912 30.8237 38.551 30.6793 38.6575 30.5729C38.7639 30.4665 38.9083 30.4067 39.0588 30.4067H41.9454C42.328 30.4013 42.7079 30.472 43.0629 30.6147C43.418 30.7574 43.7411 30.9693 44.0135 31.2379C44.286 31.5066 44.5023 31.8267 44.65 32.1797C44.7977 32.5327 44.8737 32.9115 44.8737 33.2942C44.8737 33.6768 44.7977 34.0556 44.65 34.4086C44.5023 34.7616 44.286 35.0817 44.0135 35.3504C43.7411 35.6191 43.418 35.8309 43.0629 35.9736C42.7079 36.1163 42.328 36.187 41.9454 36.1817ZM39.6264 35.0465H41.9454C42.1782 35.0507 42.4095 35.0085 42.6258 34.9223C42.8421 34.8361 43.039 34.7077 43.2051 34.5446C43.3712 34.3814 43.5031 34.1868 43.5932 33.9721C43.6832 33.7575 43.7296 33.527 43.7296 33.2942C43.7296 33.0613 43.6832 32.8309 43.5932 32.6162C43.5031 32.4015 43.3712 32.2069 43.2051 32.0437C43.039 31.8806 42.8421 31.7522 42.6258 31.666C42.4095 31.5798 42.1782 31.5376 41.9454 31.5418H39.6264V35.0465Z" fill="white"/>
<path d="M42.6827 40.8243H39.0588C38.9083 40.8243 38.7639 40.7645 38.6575 40.6581C38.551 40.5517 38.4912 40.4073 38.4912 40.2568V35.6141C38.4912 35.4635 38.551 35.3192 38.6575 35.2127C38.7639 35.1063 38.9083 35.0465 39.0588 35.0465H42.6827C43.4486 35.0465 44.1831 35.3508 44.7247 35.8923C45.2663 36.4339 45.5705 37.1684 45.5705 37.9343C45.5705 38.7002 45.2663 39.4347 44.7247 39.9763C44.1831 40.5178 43.4486 40.8221 42.6827 40.8221V40.8243ZM39.6264 39.6892H42.6827C43.1476 39.6892 43.5933 39.5046 43.922 39.1759C44.2507 38.8472 44.4354 38.4014 44.4354 37.9366C44.4354 37.4717 44.2507 37.0259 43.922 36.6973C43.5933 36.3686 43.1476 36.1839 42.6827 36.1839H39.6264V39.6892Z" fill="white"/>
<path d="M39.0588 31.5417H38.2301C38.0796 31.5417 37.9352 31.4819 37.8288 31.3755C37.7224 31.2691 37.6626 31.1247 37.6626 30.9742C37.6626 30.8237 37.7224 30.6793 37.8288 30.5729C37.9352 30.4664 38.0796 30.4066 38.2301 30.4066H39.0588C39.2093 30.4066 39.3537 30.4664 39.4601 30.5729C39.5666 30.6793 39.6264 30.8237 39.6264 30.9742C39.6264 31.1247 39.5666 31.2691 39.4601 31.3755C39.3537 31.4819 39.2093 31.5417 39.0588 31.5417Z" fill="white"/>
<path d="M39.5244 31.5418C39.3739 31.5418 39.2296 31.482 39.1231 31.3755C39.0167 31.2691 38.9569 31.1247 38.9569 30.9742V29.9299C38.9569 29.7793 39.0167 29.635 39.1231 29.5285C39.2296 29.4221 39.3739 29.3623 39.5244 29.3623C39.675 29.3623 39.8193 29.4221 39.9258 29.5285C40.0322 29.635 40.092 29.7793 40.092 29.9299V30.9742C40.092 31.1247 40.0322 31.2691 39.9258 31.3755C39.8193 31.482 39.675 31.5418 39.5244 31.5418Z" fill="white"/>
<path d="M41.3317 31.5418C41.1812 31.5418 41.0368 31.482 40.9304 31.3755C40.824 31.2691 40.7642 31.1247 40.7642 30.9742V29.9299C40.7642 29.7793 40.824 29.635 40.9304 29.5285C41.0368 29.4221 41.1812 29.3623 41.3317 29.3623C41.4823 29.3623 41.6266 29.4221 41.7331 29.5285C41.8395 29.635 41.8993 29.7793 41.8993 29.9299V30.9742C41.8993 31.1247 41.8395 31.2691 41.7331 31.3755C41.6266 31.482 41.4823 31.5418 41.3317 31.5418Z" fill="white"/>
<path d="M39.5244 41.8658C39.3739 41.8658 39.2296 41.806 39.1231 41.6996C39.0167 41.5931 38.9569 41.4488 38.9569 41.2983V40.2568C38.9569 40.1062 39.0167 39.9619 39.1231 39.8554C39.2296 39.749 39.3739 39.6892 39.5244 39.6892C39.675 39.6892 39.8193 39.749 39.9258 39.8554C40.0322 39.9619 40.092 40.1062 40.092 40.2568V41.3005C40.0914 41.4507 40.0313 41.5944 39.925 41.7004C39.8186 41.8063 39.6746 41.8658 39.5244 41.8658Z" fill="white"/>
<path d="M41.3317 41.8658C41.1812 41.8658 41.0368 41.806 40.9304 41.6996C40.824 41.5931 40.7642 41.4488 40.7642 41.2983V40.2568C40.7642 40.1062 40.824 39.9619 40.9304 39.8554C41.0368 39.749 41.1812 39.6892 41.3317 39.6892C41.4823 39.6892 41.6266 39.749 41.7331 39.8554C41.8395 39.9619 41.8993 40.1062 41.8993 40.2568V41.3005C41.8987 41.4507 41.8386 41.5944 41.7323 41.7004C41.6259 41.8063 41.4819 41.8658 41.3317 41.8658Z" fill="white"/>
<path d="M39.0588 40.8244H38.2301C38.0796 40.8244 37.9352 40.7646 37.8288 40.6581C37.7224 40.5517 37.6626 40.4073 37.6626 40.2568C37.6626 40.1063 37.7224 39.9619 37.8288 39.8554C37.9352 39.749 38.0796 39.6892 38.2301 39.6892H39.0588C39.2093 39.6892 39.3537 39.749 39.4601 39.8554C39.5666 39.9619 39.6264 40.1063 39.6264 40.2568C39.6264 40.4073 39.5666 40.5517 39.4601 40.6581C39.3537 40.7646 39.2093 40.8244 39.0588 40.8244Z" fill="white"/>
<path d="M41 24.7576C40.8495 24.7576 40.7051 24.6978 40.5987 24.5913C40.4922 24.4849 40.4324 24.3405 40.4324 24.19V20.2534C40.4324 20.1028 40.4922 19.9585 40.5987 19.852C40.7051 19.7456 40.8495 19.6858 41 19.6858C41.1505 19.6858 41.2949 19.7456 41.4013 19.852C41.5078 19.9585 41.5676 20.1028 41.5676 20.2534V24.19C41.5676 24.3405 41.5078 24.4849 41.4013 24.5913C41.2949 24.6978 41.1505 24.7576 41 24.7576Z" fill="white"/>
<path d="M40.9997 20.821C40.5363 20.821 40.0833 20.6836 39.698 20.4261C39.3127 20.1687 39.0124 19.8028 38.8351 19.3746C38.6578 18.9465 38.6114 18.4755 38.7018 18.021C38.7922 17.5665 39.0153 17.149 39.343 16.8214C39.6707 16.4937 40.0881 16.2706 40.5426 16.1802C40.9971 16.0897 41.4682 16.1361 41.8963 16.3135C42.3244 16.4908 42.6903 16.7911 42.9477 17.1764C43.2052 17.5617 43.3426 18.0147 43.3426 18.4781C43.3418 19.0992 43.0948 19.6947 42.6555 20.1339C42.2163 20.5731 41.6208 20.8202 40.9997 20.821ZM40.9997 17.2703C40.7608 17.2703 40.5273 17.3411 40.3287 17.4738C40.1301 17.6065 39.9753 17.7952 39.8838 18.0159C39.7924 18.2365 39.7685 18.4794 39.8151 18.7137C39.8617 18.948 39.9767 19.1632 40.1457 19.3321C40.3146 19.501 40.5298 19.616 40.7641 19.6626C40.9983 19.7092 41.2412 19.6853 41.4619 19.5939C41.6826 19.5025 41.8712 19.3477 42.0039 19.1491C42.1366 18.9504 42.2075 18.7169 42.2075 18.4781C42.2072 18.1578 42.0798 17.8508 41.8534 17.6244C41.6269 17.3979 41.3199 17.2706 40.9997 17.2703Z" fill="white"/>
<path d="M41 52.3142C40.8495 52.3142 40.7051 52.2544 40.5987 52.148C40.4922 52.0415 40.4324 51.8972 40.4324 51.7467V47.81C40.4324 47.6595 40.4922 47.5151 40.5987 47.4087C40.7051 47.3022 40.8495 47.2424 41 47.2424C41.1505 47.2424 41.2949 47.3022 41.4013 47.4087C41.5078 47.5151 41.5676 47.6595 41.5676 47.81V51.7467C41.5676 51.8972 41.5078 52.0415 41.4013 52.148C41.2949 52.2544 41.1505 52.3142 41 52.3142Z" fill="white"/>
<path d="M40.9997 55.8649C40.5363 55.8649 40.0833 55.7275 39.698 55.47C39.3127 55.2126 39.0124 54.8467 38.8351 54.4186C38.6578 53.9905 38.6114 53.5194 38.7018 53.0649C38.7922 52.6104 39.0153 52.193 39.343 51.8653C39.6707 51.5376 40.0881 51.3145 40.5426 51.2241C40.9971 51.1337 41.4682 51.1801 41.8963 51.3574C42.3244 51.5348 42.6903 51.835 42.9477 52.2203C43.2052 52.6056 43.3426 53.0586 43.3426 53.522C43.3418 54.1431 43.0948 54.7386 42.6555 55.1778C42.2163 55.6171 41.6208 55.8641 40.9997 55.8649ZM40.9997 52.3142C40.7608 52.3142 40.5273 52.385 40.3287 52.5178C40.1301 52.6505 39.9753 52.8391 39.8838 53.0598C39.7924 53.2805 39.7685 53.5233 39.8151 53.7576C39.8617 53.9919 39.9767 54.2071 40.1457 54.376C40.3146 54.5449 40.5298 54.66 40.7641 54.7066C40.9983 54.7532 41.2412 54.7292 41.4619 54.6378C41.6826 54.5464 41.8712 54.3916 42.0039 54.193C42.1366 53.9944 42.2075 53.7609 42.2075 53.522C42.2072 53.2018 42.0798 52.8947 41.8534 52.6683C41.6269 52.4419 41.3199 52.3145 40.9997 52.3142Z" fill="white"/>
<path d="M56.7467 36.5675H52.8101C52.6595 36.5675 52.5152 36.5077 52.4087 36.4013C52.3023 36.2948 52.2425 36.1505 52.2425 35.9999C52.2425 35.8494 52.3023 35.7051 52.4087 35.5986C52.5152 35.4922 52.6595 35.4324 52.8101 35.4324H56.7467C56.8972 35.4324 57.0416 35.4922 57.148 35.5986C57.2545 35.7051 57.3143 35.8494 57.3143 35.9999C57.3143 36.1505 57.2545 36.2948 57.148 36.4013C57.0416 36.5077 56.8972 36.5675 56.7467 36.5675Z" fill="white"/>
<path d="M58.5214 38.3429C58.0581 38.3429 57.6051 38.2055 57.2198 37.9481C56.8345 37.6906 56.5342 37.3247 56.3569 36.8966C56.1795 36.4685 56.1331 35.9974 56.2235 35.5429C56.3139 35.0885 56.5371 34.671 56.8648 34.3433C57.1924 34.0157 57.6099 33.7925 58.0644 33.7021C58.5188 33.6117 58.9899 33.6581 59.418 33.8354C59.8461 34.0128 60.2121 34.3131 60.4695 34.6984C60.7269 35.0837 60.8643 35.5366 60.8643 36C60.8636 36.6212 60.6165 37.2167 60.1773 37.6559C59.7381 38.0951 59.1426 38.3422 58.5214 38.3429ZM58.5214 34.7922C58.2826 34.7922 58.049 34.8631 57.8504 34.9958C57.6518 35.1285 57.497 35.3171 57.4056 35.5378C57.3142 35.7585 57.2903 36.0014 57.3369 36.2356C57.3835 36.4699 57.4985 36.6851 57.6674 36.854C57.8363 37.023 58.0515 37.138 58.2858 37.1846C58.5201 37.2312 58.7629 37.2073 58.9836 37.1159C59.2043 37.0244 59.393 36.8696 59.5257 36.671C59.6584 36.4724 59.7292 36.2389 59.7292 36C59.7289 35.6798 59.6016 35.3728 59.3751 35.1463C59.1487 34.9199 58.8417 34.7925 58.5214 34.7922Z" fill="white"/>
<path d="M29.1901 36.5675H25.2535C25.1029 36.5675 24.9586 36.5077 24.8521 36.4013C24.7457 36.2948 24.6859 36.1505 24.6859 35.9999C24.6859 35.8494 24.7457 35.7051 24.8521 35.5986C24.9586 35.4922 25.1029 35.4324 25.2535 35.4324H29.1901C29.3406 35.4324 29.485 35.4922 29.5914 35.5986C29.6979 35.7051 29.7577 35.8494 29.7577 35.9999C29.7577 36.1505 29.6979 36.2948 29.5914 36.4013C29.485 36.5077 29.3406 36.5675 29.1901 36.5675Z" fill="white"/>
<path d="M23.478 38.3429C23.0146 38.3429 22.5616 38.2055 22.1763 37.9481C21.791 37.6906 21.4907 37.3247 21.3134 36.8966C21.1361 36.4685 21.0897 35.9974 21.1801 35.5429C21.2705 35.0885 21.4936 34.671 21.8213 34.3433C22.1489 34.0157 22.5664 33.7925 23.0209 33.7021C23.4754 33.6117 23.9464 33.6581 24.3746 33.8354C24.8027 34.0128 25.1686 34.3131 25.426 34.6984C25.6835 35.0837 25.8209 35.5366 25.8209 36C25.8201 36.6212 25.573 37.2167 25.1338 37.6559C24.6946 38.0951 24.0991 38.3422 23.478 38.3429ZM23.478 34.7922C23.2391 34.7922 23.0056 34.8631 22.807 34.9958C22.6083 35.1285 22.4535 35.3171 22.3621 35.5378C22.2707 35.7585 22.2468 36.0014 22.2934 36.2356C22.34 36.4699 22.455 36.6851 22.6239 36.854C22.7928 37.023 23.008 37.138 23.2423 37.1846C23.4766 37.2312 23.7195 37.2073 23.9402 37.1159C24.1609 37.0244 24.3495 36.8696 24.4822 36.671C24.6149 36.4724 24.6857 36.2389 24.6857 36C24.6854 35.6798 24.5581 35.3728 24.3317 35.1463C24.1052 34.9199 23.7982 34.7925 23.478 34.7922Z" fill="white"/>
<path d="M31.1812 49.6943H26.6497C26.4992 49.6943 26.3548 49.6345 26.2484 49.5281C26.142 49.4216 26.0822 49.2773 26.0822 49.1267C26.0822 48.9762 26.142 48.8319 26.2484 48.7254C26.3548 48.619 26.4992 48.5592 26.6497 48.5592H30.8684L33.1387 44.9177C33.2183 44.7897 33.3455 44.6986 33.4923 44.6645C33.6391 44.6303 33.7934 44.6558 33.9214 44.7355C34.0493 44.8151 34.1404 44.9423 34.1746 45.0891C34.2087 45.2358 34.1832 45.3902 34.1036 45.5181L31.6676 49.427C31.6162 49.5095 31.5445 49.5774 31.4593 49.6242C31.3741 49.671 31.2784 49.6951 31.1812 49.6943Z" fill="white"/>
<path d="M24.8751 51.4696C24.4117 51.4695 23.9588 51.332 23.5736 51.0745C23.1883 50.817 22.8881 50.451 22.7109 50.0229C22.5337 49.5948 22.4873 49.1237 22.5778 48.6693C22.6683 48.2149 22.8915 47.7974 23.2191 47.4698C23.5468 47.1422 23.9643 46.9191 24.4188 46.8288C24.8732 46.7384 25.3443 46.7849 25.7724 46.9622C26.2004 47.1396 26.5663 47.4399 26.8237 47.8251C27.0812 48.2104 27.2186 48.6634 27.2186 49.1267C27.218 49.748 26.9708 50.3437 26.5315 50.783C26.0921 51.2222 25.4964 51.4692 24.8751 51.4696ZM24.8751 47.9189C24.6362 47.9191 24.4028 47.99 24.2042 48.1228C24.0057 48.2556 23.851 48.4442 23.7596 48.6649C23.6683 48.8856 23.6445 49.1285 23.6911 49.3627C23.7378 49.597 23.8529 49.8121 24.0218 49.981C24.1907 50.1498 24.4059 50.2648 24.6402 50.3113C24.8745 50.3579 25.1173 50.3339 25.338 50.2425C25.5586 50.1511 25.7472 49.9963 25.8799 49.7977C26.0126 49.5991 26.0834 49.3656 26.0834 49.1267C26.0831 48.8064 25.9557 48.4993 25.7291 48.2728C25.5026 48.0464 25.1954 47.9191 24.8751 47.9189Z" fill="white"/>
<path d="M33.6217 27.3498C33.5252 27.3499 33.4303 27.3254 33.3458 27.2786C33.2614 27.2319 33.1903 27.1643 33.1393 27.0824L30.869 23.4409H26.6497C26.4992 23.4409 26.3548 23.3811 26.2484 23.2747C26.142 23.1682 26.0822 23.0239 26.0822 22.8734C26.0822 22.7228 26.142 22.5785 26.2484 22.472C26.3548 22.3656 26.4992 22.3058 26.6497 22.3058H31.1812C31.2776 22.3057 31.3724 22.3303 31.4567 22.377C31.541 22.4238 31.612 22.4913 31.663 22.5731L34.099 26.4819C34.1524 26.5676 34.182 26.6659 34.1848 26.7667C34.1875 26.8676 34.1633 26.9673 34.1147 27.0557C34.0661 27.1441 33.9948 27.218 33.9081 27.2697C33.8215 27.3213 33.7226 27.349 33.6217 27.3498Z" fill="white"/>
<path d="M24.8751 25.2162C24.4117 25.2161 23.9588 25.0786 23.5736 24.8211C23.1883 24.5636 22.8881 24.1976 22.7109 23.7695C22.5337 23.3414 22.4873 22.8703 22.5778 22.4159C22.6683 21.9614 22.8915 21.544 23.2191 21.2164C23.5468 20.8888 23.9643 20.6657 24.4188 20.5754C24.8732 20.485 25.3443 20.5314 25.7724 20.7088C26.2004 20.8861 26.5663 21.1864 26.8237 21.5717C27.0812 21.957 27.2186 22.41 27.2186 22.8733C27.218 23.4946 26.9708 24.0903 26.5315 24.5295C26.0921 24.9688 25.4964 25.2158 24.8751 25.2162ZM24.8751 21.6655C24.6362 21.6656 24.4028 21.7366 24.2042 21.8694C24.0057 22.0021 23.851 22.1908 23.7596 22.4115C23.6683 22.6322 23.6445 22.875 23.6911 23.1093C23.7378 23.3435 23.8529 23.5587 24.0218 23.7275C24.1907 23.8964 24.4059 24.0114 24.6402 24.0579C24.8745 24.1045 25.1173 24.0805 25.338 23.9891C25.5586 23.8977 25.7472 23.7429 25.8799 23.5443C26.0126 23.3457 26.0834 23.1122 26.0834 22.8733C26.0831 22.553 25.9557 22.2459 25.7291 22.0194C25.5026 21.793 25.1954 21.6657 24.8751 21.6655Z" fill="white"/>
<path d="M55.3501 49.6943H50.8186C50.7222 49.6943 50.6274 49.6698 50.5431 49.623C50.4588 49.5763 50.3878 49.5088 50.3368 49.427L47.8985 45.5181C47.8189 45.3902 47.7933 45.2358 47.8275 45.0891C47.8616 44.9423 47.9527 44.8151 48.0807 44.7355C48.2086 44.6558 48.363 44.6303 48.5097 44.6645C48.6565 44.6986 48.7837 44.7897 48.8633 44.9176L51.1336 48.5592H55.3524C55.5029 48.5592 55.6472 48.619 55.7537 48.7254C55.8601 48.8318 55.9199 48.9762 55.9199 49.1267C55.9199 49.2772 55.8601 49.4216 55.7537 49.528C55.6472 49.6345 55.5029 49.6943 55.3524 49.6943H55.3501Z" fill="white"/>
<path d="M57.1249 51.4696C56.6615 51.4696 56.2085 51.3322 55.8232 51.0748C55.4379 50.8174 55.1376 50.4514 54.9603 50.0233C54.783 49.5952 54.7366 49.1241 54.827 48.6697C54.9174 48.2152 55.1405 47.7977 55.4682 47.47C55.7958 47.1424 56.2133 46.9192 56.6678 46.8288C57.1223 46.7384 57.5934 46.7848 58.0215 46.9622C58.4496 47.1395 58.8155 47.4398 59.0729 47.8251C59.3304 48.2104 59.4678 48.6633 59.4678 49.1267C59.4671 49.7479 59.22 50.3434 58.7807 50.7826C58.3415 51.2218 57.746 51.4689 57.1249 51.4696ZM57.1249 47.9189C56.886 47.9189 56.6525 47.9898 56.4539 48.1225C56.2552 48.2552 56.1004 48.4438 56.009 48.6645C55.9176 48.8852 55.8937 49.1281 55.9403 49.3624C55.9869 49.5966 56.1019 49.8119 56.2708 49.9808C56.4398 50.1497 56.655 50.2647 56.8893 50.3113C57.1235 50.3579 57.3664 50.334 57.5871 50.2426C57.8078 50.1512 57.9964 49.9964 58.1291 49.7977C58.2618 49.5991 58.3327 49.3656 58.3327 49.1267C58.3322 48.8065 58.2048 48.4996 57.9784 48.2732C57.752 48.0468 57.4451 47.9194 57.1249 47.9189Z" fill="white"/>
<path d="M48.3785 27.3498C48.2773 27.3497 48.1779 27.3226 48.0907 27.2712C48.0035 27.2198 47.9316 27.146 47.8825 27.0575C47.8334 26.9689 47.8089 26.8689 47.8115 26.7677C47.814 26.6665 47.8436 26.5678 47.8972 26.4819L50.3332 22.5731C50.3842 22.4913 50.4552 22.4238 50.5395 22.377C50.6238 22.3303 50.7186 22.3057 50.8151 22.3058H55.3488C55.4993 22.3058 55.6437 22.3656 55.7501 22.472C55.8566 22.5785 55.9164 22.7228 55.9164 22.8734C55.9164 23.0239 55.8566 23.1682 55.7501 23.2747C55.6437 23.3811 55.4993 23.4409 55.3488 23.4409H51.1318L48.8615 27.0824C48.8104 27.1644 48.7392 27.232 48.6547 27.2788C48.5702 27.3256 48.4751 27.35 48.3785 27.3498Z" fill="white"/>
<path d="M57.1249 25.2162C56.6615 25.2162 56.2085 25.0788 55.8232 24.8214C55.4379 24.5639 55.1376 24.198 54.9603 23.7699C54.783 23.3418 54.7366 22.8707 54.827 22.4162C54.9174 21.9618 55.1405 21.5443 55.4682 21.2166C55.7958 20.889 56.2133 20.6658 56.6678 20.5754C57.1223 20.485 57.5934 20.5314 58.0215 20.7087C58.4496 20.8861 58.8155 21.1864 59.0729 21.5717C59.3304 21.957 59.4678 22.4099 59.4678 22.8733C59.4669 23.4944 59.2198 24.0898 58.7806 24.529C58.3414 24.9682 57.746 25.2153 57.1249 25.2162ZM57.1249 21.6655C56.886 21.6655 56.6525 21.7364 56.4539 21.8691C56.2552 22.0018 56.1004 22.1904 56.009 22.4111C55.9176 22.6318 55.8937 22.8747 55.9403 23.1089C55.9869 23.3432 56.1019 23.5584 56.2708 23.7273C56.4398 23.8963 56.655 24.0113 56.8893 24.0579C57.1235 24.1045 57.3664 24.0806 57.5871 23.9892C57.8078 23.8977 57.9964 23.7429 58.1291 23.5443C58.2618 23.3457 58.3327 23.1122 58.3327 22.8733C58.3324 22.5531 58.205 22.2461 57.9786 22.0196C57.7521 21.7932 57.4451 21.6658 57.1249 21.6655Z" fill="white"/>
</g>
<defs>
<filter id="filter0_d_1_94" x="0" y="0" width="82" height="82" filterUnits="userSpaceOnUse" color-interpolation-filters="sRGB">
<feFlood flood-opacity="0" result="BackgroundImageFix"/>
<feColorMatrix in="SourceAlpha" type="matrix" values="0 0 0 0 0 0 0 0 0 0 0 0 0 0 0 0 0 0 127 0" result="hardAlpha"/>
<feOffset dy="4"/>
<feGaussianBlur stdDeviation="2"/>
<feComposite in2="hardAlpha" operator="out"/>
<feColorMatrix type="matrix" values="0 0 0 0 0 0 0 0 0 0 0 0 0 0 0 0 0 0 0.25 0"/>
<feBlend mode="normal" in2="BackgroundImageFix" result="effect1_dropShadow_1_94"/>
<feBlend mode="normal" in="SourceGraphic" in2="effect1_dropShadow_1_94" result="shape"/>
</filter>
<linearGradient id="paint0_linear_1_94" x1="41" y1="0" x2="41" y2="74" gradientUnits="userSpaceOnUse">
<stop stop-color="#84D8ED"/>
<stop offset="1" stop-color="#4292BB"/>
</linearGradient>
</defs>
</svg>
